HIERARCHY
ROOT Hips
{
  OFFSET -2.9740628571428576 95.22824285714285 -3.405862857142857
  CHANNELS 6 Xposition Yposition Zposition Zrotation Xrotation Yrotation
  JOINT LeftUpLeg
  {
    OFFSET 8.64259 1.9539799999999998 -2.3883499999999995
    CHANNELS 3 Zrotation Xrotation Yrotation
    JOINT LeftLeg
    {
      OFFSET 43.770199999999996 0.0 0.0
      CHANNELS 3 Zrotation Xrotation Yrotation
      JOINT LeftFoot
      {
        OFFSET 40.62380000000001 0.0 0.0
        CHANNELS 3 Zrotation Xrotation Yrotation
        JOINT LeftToeBase
        {
          OFFSET 12.724199999999998 0.0 0.0
          CHANNELS 3 Zrotation Xrotation Yrotation
          End Site
          {
            OFFSET 0.0 0.0 0.0
          }
        }
      }
    }
  }
  JOINT RightUpLeg
  {
    OFFSET -8.2249 1.9539799999999998 -2.59336
    CHANNELS 3 Zrotation Xrotation Yrotation
    JOINT RightLeg
    {
      OFFSET 43.56529999999999 0.0 0.0
      CHANNELS 3 Zrotation Xrotation Yrotation
      JOINT RightFoot
      {
        OFFSET 40.62380000000001 0.0 0.0
        CHANNELS 3 Zrotation Xrotation Yrotation
        JOINT RightToeBase
        {
          OFFSET 12.724199999999998 0.0 0.0
          CHANNELS 3 Zrotation Xrotation Yrotation
          End Site
          {
            OFFSET 0.0 0.0 0.0
          }
        }
      }
    }
  }
  JOINT Spine
  {
    OFFSET 0.16583 0.8771399999999999 6.61349
    CHANNELS 3 Zrotation Xrotation Yrotation
    JOINT Spine1
    {
      OFFSET 7.389628571428571 2e-05 0.0
      CHANNELS 3 Zrotation Xrotation Yrotation
      JOINT Spine2
      {
        OFFSET 11.944500000000001 1e-05 0.0
        CHANNELS 3 Zrotation Xrotation Yrotation
        JOINT Spine3
        {
          OFFSET 14.725400000000004 4e-05 0.0
          CHANNELS 3 Zrotation Xrotation Yrotation
          JOINT Spine4
          {
            OFFSET 10.9679 0.0 0.0
            CHANNELS 3 Zrotation Xrotation Yrotation
            JOINT RightShoulder
            {
              OFFSET 2.46616 -1.6653 3.69651
              CHANNELS 3 Zrotation Xrotation Yrotation
              JOINT RightArm
              {
                OFFSET 13.001199999999999 0.0 0.0
                CHANNELS 3 Zrotation Xrotation Yrotation
                JOINT RightForeArm
                {
                  OFFSET 28.784799999999997 2e-05 0.0
                  CHANNELS 3 Zrotation Xrotation Yrotation
                  JOINT RightHand
                  {
                    OFFSET 26.568800000000003 2e-05 0.0
                    CHANNELS 3 Zrotation Xrotation Yrotation
                    JOINT RightHandMiddle1
                    {
                      OFFSET 8.03675 -0.8865800000000001 0.7278700000000001
                      CHANNELS 3 Zrotation Xrotation Yrotation
                      JOINT RightHandMiddle2
                      {
                        OFFSET 2.7883299999999993 0.0 0.0
                        CHANNELS 3 Zrotation Xrotation Yrotation
                        JOINT RightHandMiddle3
                        {
                          OFFSET 2.4115500000000005 0.0 0.0
                          CHANNELS 3 Zrotation Xrotation Yrotation
                          End Site
                          {
                            OFFSET 0.0 0.0 0.0
                          }
                        }
                      }
                    }
                    JOINT RightHandRing1
                    {
                      OFFSET 7.979660000000002 -0.8867700000000002 -1.00486
                      CHANNELS 3 Zrotation Xrotation Yrotation
                      JOINT RightHandRing2
                      {
                        OFFSET 2.8636799999999996 0.0 0.0
                        CHANNELS 3 Zrotation Xrotation Yrotation
                        JOINT RightHandRing3
                        {
                          OFFSET 2.11079 0.0 0.0
                          CHANNELS 3 Zrotation Xrotation Yrotation
                          End Site
                          {
                            OFFSET 0.0 0.0 0.0
                          }
                        }
                      }
                    }
                    JOINT RightHandPinky1
                    {
                      OFFSET 8.03707 -0.8875299999999999 -2.6069600000000004
                      CHANNELS 3 Zrotation Xrotation Yrotation
                      JOINT RightHandPinky2
                      {
                        OFFSET 1.8462757142857142 0.0 0.0
                        CHANNELS 3 Zrotation Xrotation Yrotation
                        JOINT RightHandPinky3
                        {
                          OFFSET 1.8843400000000001 0.0 0.0
                          CHANNELS 3 Zrotation Xrotation Yrotation
                          End Site
                          {
                            OFFSET 0.0 0.0 0.0
                          }
                        }
                      }
                    }
                    JOINT RightHandIndex1
                    {
                      OFFSET 7.92262 -0.8855000000000002 2.31175
                      CHANNELS 3 Zrotation Xrotation Yrotation
                      JOINT RightHandIndex2
                      {
                        OFFSET 2.63761 0.0 0.0
                        CHANNELS 3 Zrotation Xrotation Yrotation
                        JOINT RightHandIndex3
                        {
                          OFFSET 2.16656 0.0 0.0
                          CHANNELS 3 Zrotation Xrotation Yrotation
                          End Site
                          {
                            OFFSET 0.0 0.0 0.0
                          }
                        }
                      }
                    }
                    JOINT RightHandThumb1
                    {
                      OFFSET 3.4769 0.059800000000000006 2.8878899999999996
                      CHANNELS 3 Zrotation Xrotation Yrotation
                      JOINT RightHandThumb2
                      {
                        OFFSET 2.7768599999999997 0.00010000000000000002 -2e-05
                        CHANNELS 3 Zrotation Xrotation Yrotation
                        JOINT RightHandThumb3
                        {
                          OFFSET 2.420578571428571 -9e-05 0.0
                          CHANNELS 3 Zrotation Xrotation Yrotation
                          End Site
                          {
                            OFFSET 0.0 0.0 0.0
                          }
                        }
                      }
                    }
                  }
                }
              }
            }
            JOINT LeftShoulder
            {
              OFFSET 2.3803400000000003 -1.29275 -3.7523014285714282
              CHANNELS 3 Zrotation Xrotation Yrotation
              JOINT LeftArm
              {
                OFFSET 16.3182 5.9999999999999995e-05 0.0
                CHANNELS 3 Zrotation Xrotation Yrotation
                JOINT LeftForeArm
                {
                  OFFSET 27.090100000000003 0.0 0.0
                  CHANNELS 3 Zrotation Xrotation Yrotation
                  JOINT LeftHand
                  {
                    OFFSET 24.545099999999998 2e-05 0.0
                    CHANNELS 3 Zrotation Xrotation Yrotation
                    JOINT LeftHandMiddle1
                    {
                      OFFSET 9.218019999999997 0.66582 0.5455300000000002
                      CHANNELS 3 Zrotation Xrotation Yrotation
                      JOINT LeftHandMiddle2
                      {
                        OFFSET 2.66255 0.0 0.0
                        CHANNELS 3 Zrotation Xrotation Yrotation
                        JOINT LeftHandMiddle3
                        {
                          OFFSET 2.2804 0.0 0.0
                          CHANNELS 3 Zrotation Xrotation Yrotation
                          End Site
                          {
                            OFFSET 0.0 0.0 0.0
                          }
                        }
                      }
                    }
                    JOINT LeftHandRing1
                    {
                      OFFSET 9.247749999999998 0.66519 -1.1266999999999998
                      CHANNELS 3 Zrotation Xrotation Yrotation
                      JOINT LeftHandRing2
                      {
                        OFFSET 2.4704099999999998 0.0 -2e-05
                        CHANNELS 3 Zrotation Xrotation Yrotation
                        JOINT LeftHandRing3
                        {
                          OFFSET 2.2054000000000005 0.0 0.0
                          CHANNELS 3 Zrotation Xrotation Yrotation
                          End Site
                          {
                            OFFSET 0.0 0.0 0.0
                          }
                        }
                      }
                    }
                    JOINT LeftHandPinky1
                    {
                      OFFSET 9.35383857142857 0.66301 -2.7233200000000006
                      CHANNELS 3 Zrotation Xrotation Yrotation
                      JOINT LeftHandPinky2
                      {
                        OFFSET 1.63407 0.0 0.0
                        CHANNELS 3 Zrotation Xrotation Yrotation
                        JOINT LeftHandPinky3
                        {
                          OFFSET 1.71176 0.0 0.0
                          CHANNELS 3 Zrotation Xrotation Yrotation
                          End Site
                          {
                            OFFSET 0.0 0.0 0.0
                          }
                        }
                      }
                    }
                    JOINT LeftHandIndex1
                    {
                      OFFSET 8.731608571428572 0.6758999999999998 2.0680099999999997
                      CHANNELS 3 Zrotation Xrotation Yrotation
                      JOINT LeftHandIndex2
                      {
                        OFFSET 2.6668899999999995 0.0 0.0
                        CHANNELS 3 Zrotation Xrotation Yrotation
                        JOINT LeftHandIndex3
                        {
                          OFFSET 2.12946 0.0 2e-05
                          CHANNELS 3 Zrotation Xrotation Yrotation
                          End Site
                          {
                            OFFSET 0.0 0.0 0.0
                          }
                        }
                      }
                    }
                    JOINT LeftHandThumb1
                    {
                      OFFSET 4.967354285714285 -0.62265 3.3958599999999994
                      CHANNELS 3 Zrotation Xrotation Yrotation
                      JOINT LeftHandThumb2
                      {
                        OFFSET 2.15386 2e-05 0.0
                        CHANNELS 3 Zrotation Xrotation Yrotation
                        JOINT LeftHandThumb3
                        {
                          OFFSET 2.1951099999999997 -2.9999999999999997e-05 2e-05
                          CHANNELS 3 Zrotation Xrotation Yrotation
                          End Site
                          {
                            OFFSET 0.0 0.0 0.0
                          }
                        }
                      }
                    }
                  }
                }
              }
            }
            JOINT Neck
            {
              OFFSET 5.0226 -0.026629999999999994 0.0
              CHANNELS 3 Zrotation Xrotation Yrotation
              JOINT Head
              {
                OFFSET 6.693637142857143 2.9999999999999997e-05 0.0
                CHANNELS 3 Zrotation Xrotation Yrotation
                End Site
                {
                  OFFSET 0.0 0.0 0.0
                }
              }
            }
          }
        }
      }
    }
  }
}
MOTION
Frames: 4
Frame Time: 0.03333333
42.3297 92.6974 1.0950700000000002 -58.0134 -77.9448 -60.2509 -171.81599999999997 6.680110000000001 88.9225 -12.3537 -5.14023 -1.2240799999999998 65.3736 -0.8342149999999999 -0.582734 28.7808 4.23721e-06 1.53998e-05 174.084 3.7489799999999995 77.9382 -4.400980000000001 18.7063 1.15688 60.6804 1.13835 0.8174259999999998 28.7808 1.4092e-05 2.81049e-05 0.25335599999999997 6.00959 -89.5121 14.8694 0.588846 -0.290464 3.1985099999999997 0.57547 -0.316211 -19.3377 0.648922 -0.10008600000000001 0.6749620000000003 0.648922 -0.10008899999999998 71.6015 -63.3049 -121.911 22.6569 17.7138 8.51614 -7.06203 -3.65875 -49.6515 11.9997 2.28335 15.582799999999999 -89.4043 88.9709 89.0941 -0.0604886 6.866389999999999e-06 -2.4230100000000044e-08 -0.0639212 -1.02625e-05 3.67965e-07 -89.3948 88.98100000000001 89.0846 -1.1574200000000001 3.4137599999999996e-06 -1.61043e-07 2.576 -1.3747999999999998e-05 2.38358e-07 -88.8572 89.3579 88.54700000000001 -1.14578 -1.3667e-05 5.738339999999975e-07 1.1457700000000002 1.3678399999999998e-05 -6.287089999999999e-07 -89.4226 88.9487 89.1123 0.40928400000000004 1.47902e-05 0.000645925 -0.6366 -1.71669e-05 -9.67137e-09 104.36399999999999 40.5023 -88.8246 -7.66903 0.18618900000000002 -1.3504399999999999 -11.2634 -3.6941000000000008e-06 6.81932e-05 -102.986 -61.403 63.9547 -24.6251 -12.3045 10.465100000000003 0.14458799999999883 -2.2065400000000004 -54.7825 -7.146010000000001 -0.919686 15.3421 -91.1873 -87.8289 -89.9988 3.4088800000000004 7.219429999999999e-06 0.00330826 -0.9548610000000001 -2.50764e-06 5.3743e-07 -91.1863 -89.4015 -89.9978 2.85637 -1.09464e-05 0.00270609 -3.1684400000000004 1.20559e-05 7.81524e-07 88.8068 -89.71700000000001 89.9954 2.54481 1.0106999999999995e-06 0.00251969 -2.54482 -2.44796e-06 -1.6736400000000002e-06 -91.1882 -86.1973 -89.9997 6.1310400000000005 -6.699539999999999e-06 0.00638374 -2.04543 -4.6122699999999995e-06 7.038330000000001e-07 -101.949 -40.7242 -90.0694 10.0172 -3.4456199999999985e-06 9.08964e-07 -2.6697599999999997 8.59987e-06 -8.31221e-07 24.046799999999998 7.3269899999999994 2.3102099999999997 35.3973 10.7102 13.4886
42.048500000000004 92.723 1.1389299999999998 -59.4233 -77.7519 -61.5929 -171.787 6.377420000000001 89.1308 -12.187000000000001 -5.52456 -1.1769399999999999 65.3153 -0.932873 -0.635738 28.7808 4.23721e-06 1.53998e-05 174.15099999999998 3.56278 78.1281 -4.3877500000000005 18.3938 1.13503 60.7577 1.1004299999999998 0.7915830000000001 28.7808 1.4092e-05 2.81049e-05 0.227685 6.01201 -89.5447 14.869000000000002 0.524772 -0.295483 3.1981100000000002 0.511264 -0.31840999999999997 -19.3379 0.58934 -0.124173 0.6747730000000001 0.589322 -0.12418399999999999 71.9712 -63.3185 -121.43799999999999 21.8447 18.3267 9.897550000000003 -6.446959999999999 -3.01872 -50.3203 13.7956 2.79318 16.9433 -89.4043 88.9709 89.0941 -0.0604886 6.866389999999999e-06 -2.4230100000000044e-08 -0.0639212 -1.02625e-05 3.67965e-07 -89.3948 88.98100000000001 89.0846 -1.1574200000000001 3.4137599999999996e-06 -1.61043e-07 2.576 -1.3747999999999998e-05 2.38358e-07 -88.8572 89.3579 88.54700000000001 -1.14578 -1.3667e-05 5.738339999999975e-07 1.1457700000000002 1.3678399999999998e-05 -6.287089999999999e-07 -89.4226 88.9487 89.1123 0.40928400000000004 1.47902e-05 0.000645925 -0.6366 -1.71669e-05 -9.67137e-09 104.36399999999999 40.5023 -88.8246 -7.66903 0.18618900000000002 -1.3504399999999999 -11.2634 -3.6941000000000008e-06 6.81932e-05 -103.103 -61.4378 63.8167 -25.516799999999996 -11.6839 11.336899999999996 0.7193370000000003 -1.7659099999999999 -54.8536 -7.1403599999999985 -0.8788530000000001 14.3941 -91.1873 -87.8289 -89.9988 3.4088800000000004 7.219429999999999e-06 0.00330826 -0.9548610000000001 -2.50764e-06 5.3743e-07 -91.1863 -89.4015 -89.9978 2.85637 -1.09464e-05 0.00270609 -3.1684400000000004 1.20559e-05 7.81524e-07 88.8068 -89.71700000000001 89.9954 2.54481 1.0106999999999995e-06 0.00251969 -2.54482 -2.44796e-06 -1.6736400000000002e-06 -91.1882 -86.1973 -89.9997 6.1310400000000005 -6.699539999999999e-06 0.00638374 -2.04543 -4.6122699999999995e-06 7.038330000000001e-07 -101.949 -40.7242 -90.0694 10.0172 -3.4456199999999985e-06 9.08964e-07 -2.6697599999999997 8.59987e-06 -8.31221e-07 23.9773 7.342060000000001 2.18683 35.297700000000006 10.8216 13.6746
41.73909999999999 92.7544 1.16729 -60.8662 -77.4999 -62.9799 -171.78400000000002 6.0413 89.3273 -11.924200000000003 -5.94466 -1.09121 65.2131 -1.0487 -0.6993229999999999 28.7808 4.23721e-06 1.53998e-05 174.22400000000002 3.409649999999999 78.3295 -4.37274 18.0434 1.11069 60.8483 1.03858 0.7508590000000002 28.7808 1.4092e-05 2.81049e-05 0.213667 6.01419 -89.5753 14.8585 0.48632700000000006 -0.294033 3.18761 0.47291700000000003 -0.31522100000000003 -19.3482 0.5523140000000001 -0.134582 0.664453 0.552309 -0.13460000000000003 72.3762 -63.3569 -120.91 21.5798 18.4674 10.960600000000003 -7.097669999999999 -3.6823300000000008 -49.732 13.385 2.59152 15.996199999999998 -89.4043 88.9709 89.0941 -0.0604886 6.866389999999999e-06 -2.4230100000000044e-08 -0.0639212 -1.02625e-05 3.67965e-07 -89.3948 88.98100000000001 89.0846 -1.1574200000000001 3.4137599999999996e-06 -1.61043e-07 2.576 -1.3747999999999998e-05 2.38358e-07 -88.8572 89.3579 88.54700000000001 -1.14578 -1.3667e-05 5.738339999999975e-07 1.1457700000000002 1.3678399999999998e-05 -6.287089999999999e-07 -89.4226 88.9487 89.1123 0.40928400000000004 1.47902e-05 0.000645925 -0.6366 -1.71669e-05 -9.67137e-09 104.36399999999999 40.5023 -88.8246 -7.66903 0.18618900000000002 -1.3504399999999999 -11.2634 -3.6941000000000008e-06 6.81932e-05 -103.21700000000001 -61.4211 63.6637 -26.058000000000003 -11.3044 12.4727 1.9542099999999998 -0.8280770000000004 -55.7947 -8.948339999999998 -1.23959 15.437700000000001 -91.1873 -87.8289 -89.9988 3.4088800000000004 7.219429999999999e-06 0.00330826 -0.9548610000000001 -2.50764e-06 5.3743e-07 -91.1863 -89.4015 -89.9978 2.85637 -1.09464e-05 0.00270609 -3.1684400000000004 1.20559e-05 7.81524e-07 88.8068 -89.71700000000001 89.9954 2.54481 1.0106999999999995e-06 0.00251969 -2.54482 -2.44796e-06 -1.6736400000000002e-06 -91.1882 -86.1973 -89.9997 6.1310400000000005 -6.699539999999999e-06 0.00638374 -2.04543 -4.6122699999999995e-06 7.038330000000001e-07 -101.949 -40.7242 -90.0694 10.0172 -3.4456199999999985e-06 9.08964e-07 -2.6697599999999997 8.59987e-06 -8.31221e-07 23.8639 7.240810000000001 2.24378 35.4196 10.7254 13.6678
41.409000000000006 92.7937 1.17549 -62.31120000000001 -77.2095 -64.3604 -171.793 5.695540000000001 89.5358 -11.6128 -6.42048 -0.9889899999999999 65.0588 -1.21071 -0.790331 28.7808 4.23721e-06 1.53998e-05 174.303 3.2748199999999983 78.5573 -4.35661 17.6671 1.08467 60.8898 0.947241 0.6942720000000002 28.7808 1.4092e-05 2.81049e-05 0.205996 6.01703 -89.6181 14.8445 0.45636499999999997 -0.309157 3.1735599999999997 0.44229799999999997 -0.328942 -19.3622 0.528173 -0.15768900000000002 0.6504979999999998 0.528157 -0.157709 72.8706 -63.3147 -120.301 21.2694 18.6567 12.0213 -7.65868 -4.2259400000000005 -49.5845 13.417 2.62245 16.1913 -89.4043 88.9709 89.0941 -0.0604886 6.866389999999999e-06 -2.4230100000000044e-08 -0.0639212 -1.02625e-05 3.67965e-07 -89.3948 88.98100000000001 89.0846 -1.1574200000000001 3.4137599999999996e-06 -1.61043e-07 2.576 -1.3747999999999998e-05 2.38358e-07 -88.8572 89.3579 88.54700000000001 -1.14578 -1.3667e-05 5.738339999999975e-07 1.1457700000000002 1.3678399999999998e-05 -6.287089999999999e-07 -89.4226 88.9487 89.1123 0.40928400000000004 1.47902e-05 0.000645925 -0.6366 -1.71669e-05 -9.67137e-09 104.36399999999999 40.5023 -88.8246 -7.66903 0.18618900000000002 -1.3504399999999999 -11.2634 -3.6941000000000008e-06 6.81932e-05 -103.26299999999999 -61.40910000000001 63.6004 -26.7616 -10.8072 13.3995 3.4043099999999997 0.21281699999999937 -56.4537 -10.0305 -1.48455 16.2333 -91.1873 -87.8289 -89.9988 3.4088800000000004 7.219429999999999e-06 0.00330826 -0.9548610000000001 -2.50764e-06 5.3743e-07 -91.1863 -89.4015 -89.9978 2.85637 -1.09464e-05 0.00270609 -3.1684400000000004 1.20559e-05 7.81524e-07 88.8068 -89.71700000000001 89.9954 2.54481 1.0106999999999995e-06 0.00251969 -2.54482 -2.44796e-06 -1.6736400000000002e-06 -91.1882 -86.1973 -89.9997 6.1310400000000005 -6.699539999999999e-06 0.00638374 -2.04543 -4.6122699999999995e-06 7.038330000000001e-07 -101.949 -40.7242 -90.0694 10.0172 -3.4456199999999985e-06 9.08964e-07 -2.6697599999999997 8.59987e-06 -8.31221e-07 23.705199999999998 7.17678 2.44507 35.56909999999999 10.6199 13.6624
